<?xml version="1.0" encoding="utf-8"?>
<!-- Generator: Adobe Illustrator 18.1.1, SVG Export Plug-In . SVG Version: 6.00 Build 0)  -->
<!DOCTYPE svg PUBLIC "-//W3C//DTD SVG 1.1//EN" "http://www.w3.org/Graphics/SVG/1.1/DTD/svg11.dtd">
<svg version="1.1" id="Layer_1" xmlns="http://www.w3.org/2000/svg" xmlns:xlink="http://www.w3.org/1999/xlink" x="0px" y="0px"
	 viewBox="-947 529 24 24" enable-background="new -947 529 24 24" xml:space="preserve">
<g>
	<path fill="#FFFFFF" d="M-930,532h-10c-1.7,0-3,1.3-3,3v12c0,1.7,1.3,3,3,3h10c1.7,0,3-1.3,3-3v-12C-927,533.3-928.3,532-930,532z
		 M-938,534h6v1c0,0.6-0.4,1-1,1h-4c-0.6,0-1-0.4-1-1V534z M-929,547c0,0.6-0.4,1-1,1h-10c-0.6,0-1-0.4-1-1v-12c0-0.6,0.4-1,1-1h1v1
		c0,1.1,0.9,2,2,2h4c1.1,0,2-0.9,2-2v-1h1c0.6,0,1,0.4,1,1V547z M-931,546h-8c-0.3,0-0.5-0.2-0.5-0.5s0.2-0.5,0.5-0.5h8
		c0.3,0,0.5,0.2,0.5,0.5S-930.7,546-931,546z M-931,543h-8c-0.3,0-0.5-0.2-0.5-0.5s0.2-0.5,0.5-0.5h8c0.3,0,0.5,0.2,0.5,0.5
		S-930.7,543-931,543z M-931,540h-8c-0.3,0-0.5-0.2-0.5-0.5s0.2-0.5,0.5-0.5h8c0.3,0,0.5,0.2,0.5,0.5S-930.7,540-931,540z"/>
</g>
</svg>
