<?xml version="1.0" encoding="utf-8"?>
<!-- Generator: Adobe Illustrator 18.1.1, SVG Export Plug-In . SVG Version: 6.00 Build 0)  -->
<!DOCTYPE svg PUBLIC "-//W3C//DTD SVG 1.1//EN" "http://www.w3.org/Graphics/SVG/1.1/DTD/svg11.dtd">
<svg version="1.1" id="Layer_1" xmlns="http://www.w3.org/2000/svg" xmlns:xlink="http://www.w3.org/1999/xlink" x="0px" y="0px"
	 viewBox="-947 529 24 24" enable-background="new -947 529 24 24" xml:space="preserve">
<g>
	<path fill="#FFFFFF" d="M-935,545c-2.2,0-4-1.8-4-4v-6c0-2.2,1.8-4,4-4s4,1.8,4,4v6C-931,543.2-932.8,545-935,545z M-935,533
		c-1.1,0-2,0.9-2,2v6c0,1.1,0.9,2,2,2s2-0.9,2-2v-6C-933,533.9-933.9,533-935,533z M-928,541v-2c0-0.6-0.4-1-1-1s-1,0.4-1,1v2
		c0,2.8-2.2,5-5,5s-5-2.2-5-5v-2c0-0.6-0.4-1-1-1s-1,0.4-1,1v2c0,3.5,2.6,6.4,6,6.9v1.1h-3c-0.6,0-1,0.4-1,1s0.4,1,1,1h8
		c0.6,0,1-0.4,1-1s-0.4-1-1-1h-3v-1.1C-930.6,547.4-928,544.5-928,541z"/>
</g>
</svg>
