<?xml version="1.0" encoding="utf-8"?>
<!-- Generator: Adobe Illustrator 18.1.1, SVG Export Plug-In . SVG Version: 6.00 Build 0)  -->
<svg version="1.1" id="Layer_1" xmlns="http://www.w3.org/2000/svg" xmlns:xlink="http://www.w3.org/1999/xlink" x="0px" y="0px"
	 viewBox="-24.1 108.7 391.4 34.7" enable-background="new -24.1 108.7 391.4 34.7" xml:space="preserve">
<g>
	<g>
		<g>
			<g>
				<path fill="#262626" d="M63.4,135.7h-4.9l-5.5-7.1h-1.4v7.1h-4v-19.3h7.6c3.9,0,6.8,1.8,6.9,6.2c0,3.5-1.6,5.3-4.4,5.8
					L63.4,135.7z M55.1,124.9c1.8,0,2.9-0.7,2.9-2.4c0-1.6-1.2-2.2-2.9-2.2h-3.6v4.6H55.1z"/>
			</g>
			<g>
				<path fill="#262626" d="M80,122.4v7.3c0,8.6-15.8,8.6-15.8,0v-7.3C64.1,113.8,80,113.8,80,122.4z M68.1,129.6
					c0,3.2,7.8,3.2,7.8,0v-7.3c0-3.3-7.8-3.2-7.8,0V129.6z"/>
			</g>
			<g>
				<path fill="#262626" d="M96.9,131.8c-1.7,2.7-4.4,4-7,4c-3.7,0-7.5-2.2-7.5-6.4v-6.9c0-4.2,3.8-6.4,7.6-6.4
					c2.6,0,5.4,1.3,6.7,4.2l-3.2,1.7c-1.7-3.2-7.1-2.5-7.1,0.5v6.9c0,3,5.4,3.6,7,0.4L96.9,131.8z"/>
			</g>
			<g>
				<path fill="#262626" d="M102.6,116.3v8.1l6.9-8.1h4.9l-8.3,9.5l8.3,9.9h-5l-6-7.2l-0.8,0.7v6.4h-4v-19.3H102.6z"/>
			</g>
			<g>
				<path fill="#262626" d="M129.3,126.8H118v8.8h-1.6v-19.3h1.6v8.9h11.3v-8.9h1.6v19.3h-1.6V126.8z"/>
			</g>
			<g>
				<path fill="#262626" d="M140.3,116.3h2.3l7,19.3H148l-2.3-6.4h-8.3l-2.3,6.4h-1.7L140.3,116.3z M145.1,127.6l-3.6-10.1
					l-3.6,10.1H145.1z"/>
			</g>
			<g>
				<path fill="#262626" d="M165.9,135.7H164l-6.5-8.2h-3.7c0,2.7,0,5.5,0,8.2h-1.6v-19.3h7.3c3.6,0,6.4,1.6,6.5,5.6
					c0,4-3,5.5-6.4,5.5h-0.1L165.9,135.7z M159.5,126c3,0,4.8-1,4.8-4c0-3-2-4.1-4.8-4h-5.7v8.1H159.5z"/>
			</g>
			<g>
				<path fill="#262626" d="M183,130.3c-0.1,4-2.8,5.4-6.5,5.4h-7.3v-19.4h7.3c3,0,5.5,1.6,5.5,4.9c0,1.7-0.5,3.3-2.1,4.2
					C182.3,126.2,183,128,183,130.3z M176.6,124.6c2.3,0,4-0.9,4-3.4c0-2.5-1.8-3.3-4-3.3h-5.7v6.7H176.6z M170.8,126.2v7.8h5.7
					c2.8,0.1,4.8-0.8,4.8-3.8c0-3.1-1.9-4.1-4.8-4H170.8z"/>
			</g>
			<g>
				<path fill="#262626" d="M201.2,121.8v8.4c0,7.9-15.3,7.9-15.3,0v-8.4C185.9,113.9,201.2,113.9,201.2,121.8z M187.5,130.2
					c0,5.8,12.1,5.8,12.1,0v-8.4c0-3.1-3.1-4.3-6.1-4.3c-3,0-6,1.3-6,4.3V130.2z"/>
			</g>
			<g>
				<path fill="#262626" d="M218.8,135.7h-1.9l-6.5-8.2h-3.7c0,2.7,0,5.5,0,8.2h-1.6v-19.3h7.3c3.6,0,6.4,1.6,6.5,5.6
					c0,4-3,5.5-6.4,5.5h-0.1L218.8,135.7z M212.4,126c3,0,4.8-1,4.8-4c0-3-2-4.1-4.8-4h-5.7v8.1H212.4z"/>
			</g>
		</g>
		<path fill="#262626" d="M19.5,123c-1.8-5-10.2-6.1-19.4-2.8c2-1.2,4.2-2.3,6.5-3.3c11.6-4.9,22.8-4.8,26.9-0.3
			c0-0.2-0.1-0.4-0.1-0.6c-0.3-1.3-1.3-2.4-2.7-3c-3.1-1.2-6.6-2.2-10.5-2.9c-4.1-0.2-9.1,1-14.2,3.3c-10.2,4.5-16.6,12.5-14.3,17.8
			c2.2,5,11.2,5.8,20.7,2.2c-2.1,1.3-4.3,2.5-6.7,3.5c-7.3,3.2-14.4,4.6-20,4.3c2.4,0.6,5,1.1,7.7,1.5c3.5,0,7.5-0.8,11.6-2.6
			C14.9,135.9,21.4,128.3,19.5,123z M34.4,124.2c-2.2,5.7-9.6,12.1-19.4,16.2c-3.2,1.3-6.3,2.3-9.3,2.9c9.4,0,18.3-1.5,25.1-4.2
			c1.4-0.6,2.4-1.7,2.7-3c0.7-3.3,1.1-6.7,1.1-10.1C34.5,125.4,34.5,124.8,34.4,124.2z M10.8,108.8c-1.9-0.1-3.7-0.2-5.6-0.2
			c-9.6,0-18.6,1.5-25.5,4.3c-1.4,0.6-2.4,1.7-2.7,3c-0.7,3.3-1.1,6.7-1.1,10.1c0,1.2,0.1,2.5,0.2,3.7c2.3-5.7,9.6-12.2,19.5-16.5
			C0.9,110.8,6.2,109.3,10.8,108.8z"/>
	</g>
	<g>
		<path fill="#262626" d="M261,120c-0.2-2.1-0.7-2.8-2-2.8c-1.2,0-1.9,0.9-1.9,2.3c0,1.6,0.6,2.5,3.1,4.8c3.6,3.3,4.5,4.8,4.5,7.6
			c0,3.5-2.2,5.9-5.5,5.9c-3.4,0-5.7-2.5-5.8-6.2l3.3-0.6c0.1,2.4,0.9,3.6,2.5,3.6c1.3,0,2.1-1,2.1-2.5c0-0.9-0.3-1.7-0.9-2.5
			c-0.6-0.7-0.8-1-2.7-2.7c-2.9-2.7-4-4.5-4-7.1c0-3.4,2.2-5.7,5.4-5.7c3.1,0,4.8,1.9,5.2,5.5L261,120z"/>
		<path fill="#262626" d="M278.7,137.4h-3.5v-19.9h-3.7v-3.2h10.9v3.2h-3.7V137.4z"/>
		<path fill="#262626" d="M300.5,129.9c0,3.4-0.3,4.7-1.4,6c-0.9,1.1-2.4,1.8-4,1.8c-1.6,0-3.1-0.7-4.1-1.8c-1.1-1.4-1.4-2.6-1.4-6
			v-8.1c0-3.4,0.3-4.7,1.4-6c0.9-1.1,2.4-1.8,4.1-1.8c1.6,0,3.1,0.7,4,1.8c1.1,1.4,1.4,2.6,1.4,6V129.9z M293.1,129.5
			c0,2.2,0.1,3.2,0.2,3.7c0.3,0.8,0.9,1.3,1.7,1.3c0.9,0,1.5-0.6,1.8-1.5c0.1-0.5,0.2-1.6,0.2-3.5v-7.3c0-2.3-0.1-3.2-0.2-3.7
			c-0.3-0.8-0.9-1.3-1.7-1.3c-0.9,0-1.6,0.6-1.8,1.5c-0.1,0.5-0.2,1.6-0.2,3.5V129.5z"/>
		<path fill="#262626" d="M312.2,137.4h-3.5v-23.1h4.9c4,0,5.8,2.1,5.8,6.7c0,3-0.6,4.6-2.3,5.8l2.7,10.6h-3.7l-2.2-9.7h-1.7V137.4z
			 M313.3,124.5c1.2,0,1.6-0.2,2-0.7c0.3-0.6,0.6-1.6,0.6-2.8c0-1.2-0.2-2.4-0.7-2.9c-0.3-0.5-0.8-0.6-1.9-0.6h-1.1v7H313.3z"/>
		<path fill="#262626" d="M331.1,137.4h-3.5v-23.1h3.5V137.4z"/>
		<path fill="#262626" d="M348.8,117.5h-6v6.3h4.3v3.2h-4.3v7.1h6v3.2h-9.4v-23.1h9.4V117.5z"/>
		<path fill="#262626" d="M363.7,120c-0.2-2.1-0.7-2.8-2-2.8c-1.2,0-1.9,0.9-1.9,2.3c0,1.6,0.6,2.5,3.1,4.8c3.6,3.3,4.5,4.8,4.5,7.6
			c0,3.5-2.2,5.9-5.5,5.9c-3.4,0-5.7-2.5-5.8-6.2l3.3-0.6c0.1,2.4,0.9,3.6,2.5,3.6c1.3,0,2.1-1,2.1-2.5c0-0.9-0.3-1.7-0.9-2.5
			c-0.6-0.7-0.8-1-2.7-2.7c-2.9-2.7-4-4.5-4-7.1c0-3.4,2.2-5.7,5.4-5.7c3.1,0,4.8,1.9,5.2,5.5L363.7,120z"/>
	</g>
	<g>
		<rect x="235.8" y="108.7" fill="#231F20" width="0.9" height="34.5"/>
	</g>
</g>
</svg>
