<?xml version="1.0" encoding="utf-8"?>
<!-- Generator: Adobe Illustrator 18.1.1, SVG Export Plug-In . SVG Version: 6.00 Build 0)  -->
<!DOCTYPE svg PUBLIC "-//W3C//DTD SVG 1.1//EN" "http://www.w3.org/Graphics/SVG/1.1/DTD/svg11.dtd">
<svg version="1.1" id="Layer_1" xmlns="http://www.w3.org/2000/svg" xmlns:xlink="http://www.w3.org/1999/xlink" x="0px" y="0px"
	 viewBox="-947 529 24 24" enable-background="new -947 529 24 24" xml:space="preserve">
<circle fill="#FFFFFF" cx="-940" cy="540" r="1"/>
<path fill="#FFFFFF" d="M-925.4,536.2c-0.3-0.2-0.6-0.2-0.9-0.1l-1.7,0.6c-0.2-1.5-1.5-2.6-3-2.6h-11c-1.7,0-3,1.3-3,3v6
	c0,1.7,1.3,3,3,3h3v1.1l0,0.1c0.1,0.7,0.4,1.4,0.9,1.9c0.6,0.6,1.3,0.9,2.1,0.9c0.8,0,1.5-0.3,2.1-0.9c0.6-0.6,0.9-1.3,0.9-2.1v-1h2
	c1.5,0,2.8-1.1,3-2.6l1.7,0.6c0.3,0.1,0.6,0.1,0.9-0.1c0.3-0.2,0.4-0.5,0.4-0.8v-6C-925,536.7-925.2,536.4-925.4,536.2z M-935,547
	c0,0.2-0.1,0.5-0.3,0.7c-0.2,0.2-0.4,0.3-0.7,0.3c-0.2,0-0.5-0.1-0.7-0.3c-0.2-0.2-0.3-0.4-0.3-0.7v-2h2V547z M-930,543
	c0,0.6-0.4,1-1,1h-11c-0.6,0-1-0.4-1-1v-6c0-0.6,0.4-1,1-1h11c0.6,0,1,0.4,1,1V543z M-927,541.6c0,0-1.9-0.6-2-0.6v-2
	c0.1,0,2-0.6,2-0.6S-927,541.6-927,541.6z"/>
</svg>
